<svg xmlns="http://www.w3.org/2000/svg" width="15.589" height="19.701" viewBox="0 0 15.589 19.701">
  <path id="notification" d="M68.7,15.678a3.061,3.061,0,0,1-.93-1.267A14.656,14.656,0,0,1,66.8,8.62c0-.007,0-.015,0-.022a5.59,5.59,0,0,0-3.29-5.07V2.195A2.2,2.2,0,0,0,61.319,0h-.182a2.2,2.2,0,0,0-2.191,2.195V3.528A5.59,5.59,0,0,0,55.656,8.62a14.656,14.656,0,0,1-.97,5.791,3.061,3.061,0,0,1-.93,1.267.561.561,0,0,0-.308.638.587.587,0,0,0,.579.451h4.231a2.972,2.972,0,0,0,5.943,0h4.231a.587.587,0,0,0,.579-.451A.561.561,0,0,0,68.7,15.678ZM60.1,2.195a1.039,1.039,0,0,1,1.037-1.038h.182a1.039,1.039,0,0,1,1.037,1.038v.959a5.59,5.59,0,0,0-2.255,0V2.195Zm1.127,16.35a1.821,1.821,0,0,1-1.817-1.777h3.634A1.821,1.821,0,0,1,61.229,18.545Zm2.324-2.934H55.342a6.049,6.049,0,0,0,.3-.531A14.613,14.613,0,0,0,56.81,8.62a4.418,4.418,0,1,1,8.836,0c0,.007,0,.014,0,.021a14.583,14.583,0,0,0,1.166,6.437,6.055,6.055,0,0,0,.3.531Z" transform="translate(-53.434 0)" fill="#486dcf"/>
</svg>
