<svg id="envelope" xmlns="http://www.w3.org/2000/svg" width="20.059" height="15.265" viewBox="0 0 20.059 15.265">
  <g id="Group_23" data-name="Group 23" transform="translate(0 0)">
    <path id="Path_25" data-name="Path 25" d="M17.61,57.75H2.453A2.455,2.455,0,0,0,0,60.2V70.562a2.455,2.455,0,0,0,2.453,2.453H17.606a2.455,2.455,0,0,0,2.453-2.453V60.207A2.452,2.452,0,0,0,17.61,57.75Zm1.332,12.812a1.334,1.334,0,0,1-1.332,1.332H2.453a1.334,1.334,0,0,1-1.332-1.332V60.207a1.334,1.334,0,0,1,1.332-1.332H17.606a1.334,1.334,0,0,1,1.332,1.332V70.562Z" transform="translate(0 -57.75)" fill="#486dcf"/>
    <path id="Path_26" data-name="Path 26" d="M66.089,114.283l4.906-4.4a.561.561,0,0,0-.751-.834l-6.765,6.072-1.32-1.179s-.008-.008-.008-.012a.829.829,0,0,0-.091-.079l-5.371-4.806a.561.561,0,1,0-.747.838l4.964,4.437-4.943,4.628a.563.563,0,0,0-.025.793.573.573,0,0,0,.411.178.562.562,0,0,0,.382-.149l5.018-4.694,1.361,1.216a.559.559,0,0,0,.747,0l1.4-1.253,4.989,4.74a.562.562,0,0,0,.793-.021.563.563,0,0,0-.021-.793Z" transform="translate(-53.438 -106.779)" fill="#486dcf"/>
  </g>
</svg>
