<svg xmlns="http://www.w3.org/2000/svg" width="216.776" height="303.126" viewBox="0 0 216.776 303.126"><g id="Group_3343" data-name="Group 3343" transform="translate(-1270.472 -164.548)"><path id="Path_1807" fill="#48ffec" d="M-762.171,166.548s-247.9,74.265-213.5,218.791,213.5,59.476,213.5,59.476Z" data-name="Path 1807" opacity=".07" transform="translate(2249.419 -2)"/><g id="Group_2940" data-name="Group 2940" transform="translate(-14.89 -4.387)"><g id="Group_2939" data-name="Group 2939" transform="translate(1315.102 292.387)"><path id="Path_1737" fill="#d7e4f9" d="M1082.475,387.061a74.353,74.353,0,0,1-12.683,12.108H942.475a76.384,76.384,0,0,1-11.989-12.108Z" data-name="Path 1737" transform="translate(-930.486 -240.757)"/><path id="Path_1738" fill="#3eaebd" d="M987.272,365.273c1.178-13.5-6.786-28.214-6.786-28.214s-5.654,15.6-.045,29.167" data-name="Path 1738" transform="translate(-860.622 -227.578)"/><path id="Path_1739" fill="#3e83bd" d="M972.976,373.792c-.918-13.524,7.329-28.054,7.329-28.054s5.352,15.725-.518,29.161" data-name="Path 1739" transform="translate(-852.696 -229.865)"/><path id="Path_1740" fill="#3ed9bd" d="M964.1,369.6c1.848-13.412,12.84-25.623,12.84-25.623s2.032,16.615-6.42,28.325" data-name="Path 1740" transform="translate(-841.878 -229.401)"/><path id="Path_1741" fill="#3ed9bd" d="M994.637,369.6c-1.847-13.412-12.839-25.623-12.839-25.623s-2.032,16.615,6.419,28.325" data-name="Path 1741" transform="translate(-869.953 -229.401)"/><path id="Path_1742" fill="#fff" d="M987.661,375.1H967.927l2.212,20.917h15.309Z" data-name="Path 1742" transform="translate(-854.515 -237.604)"/><path id="Path_1743" fill="#97b8e8" d="M995.246,278.5H973.689l-14.874,24.1-1.2,12.211,23.831-2.4,7.732-6.606,7.417-11.01" data-name="Path 1743" transform="translate(-856.683 -212.145)"/><path id="Path_1744" fill="#b8cef4" d="M954.075,316.807a3.438,3.438,0,0,1,3.411-2.5c6.943.391,26.218.556,35.038-8.734,7.526-7.928,8.077-17.79,7.705-23.1a3.61,3.61,0,0,1,3.283-3.974l.2-.008a3.536,3.536,0,0,1,3.55,3.421c.525,7.342.185,24.26-12.547,33.42-12.518,9.006-30.063,7.589-37.891,6.358a3.728,3.728,0,0,1-2.745-4.882Z" data-name="Path 1744" transform="translate(-864.798 -212.14)"/><path id="Path_1745" fill="#c2ffe8" d="M1099.136,212.053v32.769a1.073,1.073,0,0,1-1.026,1.115h-49.479a1.075,1.075,0,0,1-1.029-1.115V212.053a1.075,1.075,0,0,1,1.029-1.115h49.479a.977.977,0,0,1,.679.281A1.155,1.155,0,0,1,1099.136,212.053Z" data-name="Path 1745" transform="translate(-1011.959 -194.337)"/><path id="Path_1746" fill="#7dffce" d="M1099.136,212.053v11.282H1047.6V212.053a1.075,1.075,0,0,1,1.029-1.115h49.479a.977.977,0,0,1,.679.281A1.155,1.155,0,0,1,1099.136,212.053Z" data-name="Path 1746" transform="translate(-1011.959 -194.337)"/><path id="Path_1747" fill="#fff" d="M1112.443,218.269a1.853,1.853,0,1,1-1.847-2A1.929,1.929,0,0,1,1112.443,218.269Z" data-name="Path 1747" opacity=".36" transform="translate(-1065.411 -195.741)"/><rect id="Rectangle_606" width="9.606" height="1.334" fill="#fff" data-name="Rectangle 606" rx=".667" transform="translate(48.194 21.86)"/><path id="Path_1748" fill="#0ece86" d="M1056.066,211.219a.976.976,0,0,0-.679-.281h-7.624a8.835,8.835,0,0,0-.161,1.69c0,4.527,3.385,8.194,7.562,8.194a6.806,6.806,0,0,0,1.249-.116v-8.654A1.154,1.154,0,0,0,1056.066,211.219Z" data-name="Path 1748" transform="translate(-971.924 -194.337)"/><path id="Path_1749" fill="none" stroke="#2dffb0" stroke-linecap="round" stroke-linejoin="round" stroke-width="1.525" d="M1096.452,248.922s-1.662-7.135-6.558-7.135-3.7,3.568-9.145,3.568-3.793-7.712-9.471-7.712-3.923,4.72-9,4.72-7.2-6.923-7.2-6.923" data-name="Path 1749" transform="translate(-1014.461 -200.794)"/><path id="Path_1750" fill="none" stroke="#f7f7f7" stroke-linecap="round" stroke-linejoin="round" stroke-width="1.525" d="M1096.452,247.608s-1.662-9.077-6.558-9.077-3.7,4.539-9.145,4.539-3.793-9.812-9.471-9.812-3.923,6.006-9,6.006-7.2-8.808-7.2-8.808" data-name="Path 1750" transform="translate(-1014.461 -199.481)"/><path id="Path_1806" fill="#ffba51" d="M8.309,15.205c4.5.085,8.085-3.25,8-7.448S12.505.086,8,0-.083,3.251,0,7.45,3.806,15.12,8.309,15.205Z" data-name="Path 1806" transform="matrix(-0.251, -0.968, 0.968, -0.251, 78.519, 26.918)"/><path id="Path_1751" fill="#ff8e51" d="M1041.217,209.889a4.517,4.517,0,1,0,4.5-4.88A4.7,4.7,0,0,0,1041.217,209.889Z" data-name="Path 1751" transform="translate(-961.85 -192.774)"/><path id="Path_1752" fill="#ffba51" d="M1047.59,212.834v-.507a1.856,1.856,0,0,0,.839-.23l-.148-.625a1.642,1.642,0,0,1-.819.236c-.281,0-.474-.118-.474-.331s.158-.331.523-.465c.528-.193.888-.46.888-.978a.96.96,0,0,0-.833-.951v-.507h-.483v.471a1.658,1.658,0,0,0-.715.176l.144.6a1.528,1.528,0,0,1,.709-.182c.321,0,.424.149.424.3,0,.176-.172.288-.591.46-.587.224-.824.518-.824,1a.994.994,0,0,0,.878.988v.545Z" data-name="Path 1752" transform="translate(-963.435 -193.687)"/><path id="Path_1753" fill="#ffc5d0" d="M1083.321,257.263l-1.417,5.307a6.044,6.044,0,0,0-2.626-.688,28.788,28.788,0,0,1-2.923-.3,2.041,2.041,0,0,1-1.41-.809c-.894-1.536.894-5.405.894-5.405s-4.1-3.1-3.819-4.1,3.047,2.066,7.667,3.535c-.308-.733-.523-3.137,0-3.237S1083.321,257.263,1083.321,257.263Z" data-name="Path 1753" transform="translate(-1013.491 -204.913)"/><path id="Path_1754" fill="#ff81a7" d="M1081.131,259.754a17.458,17.458,0,0,1-.547,3.667,28.811,28.811,0,0,1-2.923-.3c3.177-.1,2.431-1.208,2.916-3.446.508-2.353-.462-1.651-3.432-2.768,0,0,1.262.166,2.392.292S1081.177,257.62,1081.131,259.754Z" data-name="Path 1754" transform="translate(-1014.858 -206.452)"/><path id="Path_1755" fill="#fff" d="M978.683,257.6a122.656,122.656,0,0,1,.37,20.318h29.28s-1.06-7.406-1.361-14.913-4.334-27.857-4.334-27.857l-7.863-10.027-7.154.553-7.09,7.4" data-name="Path 1755" transform="translate(-881.333 -198.075)"/><path id="Path_1756" fill="#aee0ff" d="M1054.87,225.873l-1.508,3.339-2.848,6.3-2.174,4.813-3.056,6.762c-.348.654-.944,2-1.724,3.67-1.9,4.055-4.875,10.044-7.953,12.838a4.5,4.5,0,0,1-3.592,1.508c-4.089-.655-14.9-5.142-20.048-7.422-1.676-.744-2.754-1.255-2.8-1.32-.184-.267,2.4-6.406,2.77-6.8a10.118,10.118,0,0,1,2.6.486c5.188,1.275,16.3,4.515,16.3,4.515s6.033-11.676,8.681-17.683c2.346-5.318,6.381-8.649,12.756-10.4Q1053.516,226.136,1054.87,225.873Z" data-name="Path 1756" transform="translate(-945.32 -198.273)"/><path id="Path_1757" fill="#d6e5ff" d="M1073.878,258.519l-2.576,7.638c-1.676-.745-2.754-1.255-2.8-1.32-.184-.267,2.4-6.405,2.77-6.8A10.114,10.114,0,0,1,1073.878,258.519Z" data-name="Path 1757" transform="translate(-1002.262 -206.744)"/><path id="Path_1758" fill="#92c7ff" d="M1031.5,244.131l-3.056,6.762c-1.184,2.249-5.331,12.563-9.677,16.508a43.834,43.834,0,0,0,3.213-6c2.838-5.642,1.293-15.714,6.222-21.1Z" data-name="Path 1758" transform="translate(-929.344 -202.075)"/><path id="Path_1759" fill="#aee0ff" d="M1021.715,225.873a23.279,23.279,0,0,0-1.508,3.339,60.746,60.746,0,0,0-2.368,8.613,114.692,114.692,0,0,0-2.382,21.577c.093,8,.922,13.551.461,13.43s-7.111,2.182-6.743-.82,1.941-15.225,1.941-17.921a13.324,13.324,0,0,0-.71-3.33,16.349,16.349,0,0,1-.122-9.275c1.2-4.645,3.2-9.581,6.318-12.684A10.417,10.417,0,0,1,1021.715,225.873Z" data-name="Path 1759" transform="translate(-913.747 -198.273)"/><path id="Path_1760" fill="#aee0ff" d="M991.43,270.664c-.124,1.819-15.518,2.583-15.518,2.583s-.031-.141-.088-.416c-.1-.468-.259-1.328-.463-2.533-.363-2.148-.842-5.4-1.249-9.522-.153-1.536-.3-3.2-.417-4.961-.326-4.754-.508-10.295-.35-16.388.109-4.181.378-8.618.87-13.24.011-.1.024-.211.034-.314l3.737,2.306,5.562,3.431,3.818,3.6s.033.932.09,2.575c.093,2.752.249,7.489.4,13.173a48.507,48.507,0,0,0,.687,6.694c.539,3.226,1.3,6.169,1.9,8.466A23.424,23.424,0,0,1,991.43,270.664Z" data-name="Path 1760" transform="translate(-861.57 -198.273)"/><path id="Path_1761" fill="#92c7ff" d="M991.491,269.511c-3.421,4.316-10.325,6.04-14.621,6.711a138.123,138.123,0,0,1-2.13-17.016c3.666-4.4,10.213-13.075,11.7-20.468l2.06,2.441c.093,2.752.249,7.489.4,13.173A67.909,67.909,0,0,0,991.491,269.511Z" data-name="Path 1761" transform="translate(-862.549 -201.664)"/><path id="Path_1762" fill="#ff7f51" d="M1044.334,274.311l-3.287-13.48-16.648-.167,6.856,26.223h16.165Z" data-name="Path 1762" transform="translate(-948.181 -207.443)"/><path id="Path_1763" fill="#ffa151" d="M1045.065,274.311l-3.287-13.48-16.648-.167,6.856,26.223h16.164Z" data-name="Path 1763" transform="translate(-949.351 -207.443)"/><path id="Path_1764" fill="#ffc5d0" d="M1033.076,277.566l-5.6-1,.585,2.335s-3.564.067-6.342-.167-2.525.6-.986,1.535,1.786,1.868,3.571,3.4,3.572,1.27,5.851.351a13.1,13.1,0,0,1,4.218-.952" data-name="Path 1764" transform="translate(-932.62 -211.634)"/><path id="Path_1765" fill="#aee0ff" d="M1003.907,251.8c-.591,1.924-1.187,3.838-1.807,5.661-1.8,5.294-3.781,9.792-6.323,11.356-1.052.646-3.7,1.047-6.862,1.289-4.512.348-10.071.382-13.546.356-2.016-.014-3.329-.045-3.329-.045v-7.306l3.029-.492,12.6-2.035,2.939-.474,7.841-24.925-7.3-6.287-3.374-2.9-1.008-.868c.949.233,2.131.39,3.436.576,4.3.609,9.947,1.516,12.924,6.43C1007,238.536,1006.216,244.29,1003.907,251.8Z" data-name="Path 1765" transform="translate(-874.707 -198.075)"/><path id="Path_1766" fill="#92c7ff" d="M997.723,227.074a2.62,2.62,0,0,1-.267.907c-.1.259-.241.567-.4.912a81.441,81.441,0,0,0-4.245,10.337c.109-4.181.379-8.618.871-13.24l-1.008-.868c.949.233,2.131.39,3.436.576C996.956,226.172,997.663,226.557,997.723,227.074Z" data-name="Path 1766" transform="translate(-880.034 -198.075)"/><path id="Path_1767" fill="#d6e5ff" d="M1020.2,283.876c-2.016-.014-3.329-.045-3.329-.045v-7.306l3.029-.492Z" data-name="Path 1767" transform="translate(-917.28 -211.494)"/><path id="Path_1768" fill="#a2336b" d="M1047.676,261.58h-5.632a1.3,1.3,0,0,1-1.128-.919l-.2-.667c-.155-.507.1-.918.567-.918h5.632a1.3,1.3,0,0,1,1.127.918l.2.667C1048.4,261.168,1048.144,261.58,1047.676,261.58Z" data-name="Path 1768" transform="translate(-959.65 -207.024)"/><path id="Path_1769" fill="#33758e" d="M1062.871,316.532c-9.423,5.906-30.688,4.572-30.688,4.572l-5.456,9.674-18.324,32.5H995.195s17.344-44.274,23.1-53.182c5.139-7.952,29.636-12.29,34.829-13.128h0c.622-.1.968-.152.968-.152h17.4S1072.292,310.627,1062.871,316.532Z" data-name="Path 1769" transform="translate(-951.885 -216.971)"/><path id="Path_1770" fill="#195167" d="M1031.339,316.532c-9.423,5.906-30.688,4.572-30.688,4.572l-5.456,9.674c1.6-6,4.077-14.249,6.629-18.948,3.971-7.321,17.477-13.8,19.77-14.864h0c.213-.1.33-.152.33-.152h18.042S1040.759,310.627,1031.339,316.532Z" data-name="Path 1770" transform="translate(-922.195 -216.971)"/><path id="Path_1771" fill="#33758e" d="M1036.206,296.815s4.9,13.813-4.525,19.718-27.527,4.3-27.527,4.3l-14.132,42.437H976.812s7.7-44.539,13.455-53.447,32.637-13.012,32.637-13.012Z" data-name="Path 1771" transform="translate(-908.062 -216.971)"/><path id="Path_1772" fill="#ffc5d0" d="M1118.59,387.061l-.332,4.265-.567,7.267a.6.6,0,0,1-.581.575h-28.468a.64.64,0,0,1-.3-1.173l15-9.627,2.04-1.308Z" data-name="Path 1772" transform="translate(-1061.836 -240.757)"/><path id="Path_1773" fill="#ffc5d0" d="M1069.362,387.061l-.523,6.708-.334,4.279a1.169,1.169,0,0,1-1.125,1.12h-19.416a1.24,1.24,0,0,1-.806-2.083l5.846-6.422,3.281-3.6Z" data-name="Path 1773" transform="translate(-987.433 -240.757)"/><path id="Path_1774" fill="#fff" d="M1118.747,391.795l-.568,7.267a.6.6,0,0,1-.581.575h-28.468a.64.64,0,0,1-.3-1.173l15-9.627,3.538,3.315a4.071,4.071,0,0,0,3.521,1.069Z" data-name="Path 1774" transform="translate(-1062.311 -241.225)"/><path id="Path_1775" fill="#fff" d="M1069.609,395.059l-.334,4.279a1.169,1.169,0,0,1-1.125,1.12h-19.415a1.24,1.24,0,0,1-.806-2.083l5.846-6.422h7.731a2.472,2.472,0,0,1,1.739.73l1.663,1.645a2.474,2.474,0,0,0,1.739.73Z" data-name="Path 1775" transform="translate(-988.174 -242.046)"/><path id="Path_1776" fill="#a2336b" d="M993.719,188.469c-7.215.788-9.006,7.156-8.175,12.461s-5.819,10.456-.646,14.236,6.928-2.193,11.685-1.584,8.59,4.7,11.916-.147,1.709-6.7-1.432-9.552S1004.711,187.268,993.719,188.469Z" data-name="Path 1776" transform="translate(-885.953 -188.395)"/><path id="Path_1777" fill="#ffc5d0" d="M1006.3,222.994s-.863,2.536-2.833,3.069-3.972-.435-4.218-1.634c-.091-.44-.2-1.323-.314-2.263-.189-1.631-.362-3.443-.362-3.443l5.76-3.055,1.351-.717Z" data-name="Path 1777" transform="translate(-892.096 -195.395)"/><path id="Path_1778" fill="#ff81a7" d="M1000.467,222.421c.018.164-.353-3.357-.362-3.443l5.76-3.055c.557-.006.9.185.92.654C1006.871,218.99,1005.658,222.469,1000.467,222.421Z" data-name="Path 1778" transform="translate(-893.556 -195.651)"/><path id="Path_1779" fill="#ffc5d0" d="M1005.681,210.046s-1.778,6.854-7.621,6.43c-5.6-.409-5.09-10.6-4.711-13.526.016-.129.031-.247.047-.345a4.915,4.915,0,0,0,2.33-1.6c.065-.078.124-.154.181-.227A5.218,5.218,0,0,0,996.4,200s.169,3.148,3.955,3.648,4.5-.337,4.82.362a1.411,1.411,0,0,1,.09.376c.006.037.01.073.013.113.011.1.018.214.021.331.039,1.117-.135,2.819.2,3.01.438.25.6-2.552,2.516-1.727S1008.221,210.9,1005.681,210.046Z" data-name="Path 1779" transform="translate(-891.05 -191.455)"/><path id="Path_1780" fill="#ff81a7" d="M1007.925,204.5c-4.908,2.286-8.495-.368-9.552-3.5.065-.078.124-.154.181-.227a5.207,5.207,0,0,0,.493-.775s.169,3.148,3.955,3.648,4.5-.337,4.82.362a1.421,1.421,0,0,1,.09.376C1007.917,204.427,1007.922,204.463,1007.925,204.5Z" data-name="Path 1780" transform="translate(-893.535 -191.455)"/><path id="Path_1781" fill="#92c7ff" d="M1014.662,225.873l-1.508,3.339a60.763,60.763,0,0,0-2.368,8.613c-.156-.747-.319-1.542-.479-2.309-.34-1.62-.669-3.117-.886-3.79a3.467,3.467,0,0,1,.129-2.924,6.677,6.677,0,0,1,2.527-2.325Q1013.309,226.136,1014.662,225.873Z" data-name="Path 1781" transform="translate(-906.975 -198.273)"/><rect id="Rectangle_607" width="25.371" height="21.919" fill="#373063" data-name="Rectangle 607" rx="1.087" transform="translate(26.919 44.413)"/><path id="Path_1782" fill="#fff" d="M1107.208,255.348a1.035,1.035,0,1,0,1.031-1.118A1.078,1.078,0,0,0,1107.208,255.348Z" data-name="Path 1782" opacity=".36" transform="translate(-1061.411 -205.747)"/><path id="Path_1783" fill="#fff" d="M1112.231,255.987h4.676a.359.359,0,0,0,.344-.373h0a.359.359,0,0,0-.344-.373h-4.676a.359.359,0,0,0-.344.373h0A.359.359,0,0,0,1112.231,255.987Z" data-name="Path 1783" transform="translate(-1072.014 -206.014)"/><rect id="Rectangle_608" width="2.474" height="6.255" fill="#3ec2bd" data-name="Rectangle 608" rx=".476" transform="translate(44.555 56.578)"/><rect id="Rectangle_609" width="2.474" height="3.753" fill="#3ec2bd" data-name="Rectangle 609" rx=".476" transform="translate(39.824 59.08)"/><rect id="Rectangle_610" width="2.474" height="7.306" fill="#3ec2bd" data-name="Rectangle 610" rx=".476" transform="translate(35.093 55.527)"/><rect id="Rectangle_611" width="2.474" height="9.759" fill="#3ec2bd" data-name="Rectangle 611" rx=".476" transform="translate(30.362 53.075)"/><rect id="Rectangle_612" width="2.474" height="6.256" fill="#fff" data-name="Rectangle 612" rx=".476" transform="translate(45.014 56.023)"/><rect id="Rectangle_613" width="2.474" height="3.753" fill="#fff" data-name="Rectangle 613" rx=".476" transform="translate(40.283 58.526)"/><rect id="Rectangle_614" width="2.474" height="7.306" fill="#fff" data-name="Rectangle 614" rx=".476" transform="translate(35.552 54.972)"/><rect id="Rectangle_615" width="2.474" height="9.759" fill="#fff" data-name="Rectangle 615" rx=".476" transform="translate(30.821 52.52)"/><path id="Path_1796" fill="#48ffec" d="M961.051,191.355v19.422a.882.882,0,0,1-.845.916H934.058a.813.813,0,0,0-.6.268l-4.405,4.771a.839.839,0,0,1-1.442-.648v-24.73a.883.883,0,0,1,.845-.916h31.748A.882.882,0,0,1,961.051,191.355Z" data-name="Path 1796" transform="translate(-807.135 -188.934)"/><path id="Path_1797" fill="#0071ff" d="M932.368,203.622a3.535,3.535,0,0,1,3.393.8l-1.8,1.08-1.4-.654" data-name="Path 1797" transform="translate(-785.963 -192.362)"/><path id="Path_1798" fill="#0071ff" d="M941.7,206.717a4.311,4.311,0,0,0-.8,3.663l1.677-1.3.061-1.652" data-name="Path 1798" transform="translate(-798.559 -193.224)"/><path id="Path_1799" fill="#379bff" d="M937.24,206.887l4.019-2.742c-2.886-4.964-6.19-5.817-6.19-5.817S934.355,201.923,937.24,206.887Z" data-name="Path 1799" transform="translate(-793.243 -191.013)"/><path id="Path_1800" fill="#fff" d="M939.386,204.144a.835.835,0,0,0,1.2.3,1,1,0,0,0,.273-1.3.835.835,0,0,0-1.2-.3A1,1,0,0,0,939.386,204.144Z" data-name="Path 1800" transform="translate(-795.878 -192.164)"/><path id="Path_1801" fill="#fff" d="M948.78,200.034h12.325a.638.638,0,0,0,.611-.662h0a.638.638,0,0,0-.611-.662H948.78a.638.638,0,0,0-.611.662h0A.637.637,0,0,0,948.78,200.034Z" data-name="Path 1801" transform="translate(-820.33 -191.114)"/><path id="Path_1802" fill="#379bff" d="M948.78,205.77h12.325a.638.638,0,0,0,.611-.662h0a.638.638,0,0,0-.611-.662H948.78a.638.638,0,0,0-.611.662h0A.637.637,0,0,0,948.78,205.77Z" data-name="Path 1802" transform="translate(-820.33 -192.626)"/><path id="Path_1803" fill="#379bff" d="M948.78,211.506h8.877a.637.637,0,0,0,.611-.662h0a.638.638,0,0,0-.611-.662H948.78a.638.638,0,0,0-.611.662h0A.638.638,0,0,0,948.78,211.506Z" data-name="Path 1803" transform="translate(-816.955 -194.138)"/><path id="Path_1804" fill="#d2e0ff" d="M1076.455,403.5a86.546,86.546,0,0,1-30.9,14.515c-32.95,8.435-70.282,6.442-96.255-14.515Z" data-name="Path 1804" transform="translate(-937.278 -245.09)"/><rect id="Rectangle_617" width="4.127" height="47.975" fill="#97b8e8" data-name="Rectangle 617" transform="translate(107.201 110.438)"/><path id="Path_1805" fill="#b8cef4" d="M1010.411,401.643H990.6a2.541,2.541,0,0,1-2.433-2.637h0a2.541,2.541,0,0,1,2.433-2.636h19.809a2.541,2.541,0,0,1,2.433,2.636h0A2.541,2.541,0,0,1,1010.411,401.643Z" data-name="Path 1805" transform="translate(-891.726 -243.21)"/></g></g></g></svg>