<svg xmlns="http://www.w3.org/2000/svg" width="16.275" height="16.275" viewBox="0 0 16.275 16.275">
  <g id="pie-chart_1_" data-name="pie-chart (1)" transform="translate(0)">
    <path id="Path_1943" data-name="Path 1943" d="M304.815,1.036V0h-.954V.954h-.954V0h-.954V.954H301v.954h.954V4.768H301v.954h.954v.954h.954V5.722h.954v.954h.954V5.64a1.429,1.429,0,0,0,.588-2.3,1.429,1.429,0,0,0-.588-2.3Zm-1.907.872h1.43a.477.477,0,0,1,0,.954h-1.43Zm1.43,2.861h-1.43V3.815h1.43a.477.477,0,0,1,0,.954Z" transform="translate(-291.432)" fill="#8a98b8"/>
    <path id="Path_1944" data-name="Path 1944" d="M16.275,8.106V7.629H8.615V0H8.138A8.112,8.112,0,0,0,3.82,1.238L2.582,0H0V.954H2.187l.845.845A8.082,8.082,0,0,0,0,8.106a8.182,8.182,0,0,0,8.138,8.169,8.016,8.016,0,0,0,4.3-1.241l1.227,1.241h2.615v-.954H14.059l-.841-.85A8.159,8.159,0,0,0,16.275,8.106ZM3.71,2.478l1.2,1.2L5.582,3,4.514,1.932A7.157,7.157,0,0,1,7.661.969V7.908L2.725,12.845A7.168,7.168,0,0,1,3.71,2.478Zm8.038,11.865a7.145,7.145,0,0,1-8.352-.82L8.335,8.582h6.971A7.222,7.222,0,0,1,12.55,13.8l-1.212-1.226-.678.671Z" fill="#8a98b8"/>
  </g>
</svg>
