<svg xmlns="http://www.w3.org/2000/svg" id="_18" width="16.3" height="16.3" data-name="18" viewBox="0 0 16.3 16.3"><path id="Path_1932" fill="#8a98b8" d="M.478,2.865a.478.478,0,0,0,.478-.478V.955H2.388a.478.478,0,0,0,0-.955H.478A.478.478,0,0,0,0,.478v1.91A.478.478,0,0,0,.478,2.865Z" data-name="Path 1932"/><path id="Path_1933" fill="#8a98b8" d="M2.388,423.91H.955v-1.433a.478.478,0,1,0-.955,0v1.91a.478.478,0,0,0,.478.478h1.91a.478.478,0,0,0,0-.955Z" data-name="Path 1933" transform="translate(0 -408.565)"/><path id="Path_1934" fill="#8a98b8" d="M424.388,422a.478.478,0,0,0-.478.478v1.433h-1.433a.478.478,0,0,0,0,.955h1.91a.478.478,0,0,0,.478-.478v-1.91A.478.478,0,0,0,424.388,422Z" data-name="Path 1934" transform="translate(-408.565 -408.565)"/><path id="Path_1935" fill="#8a98b8" d="M424.388,0h-1.91a.478.478,0,1,0,0,.955h1.433V2.388a.478.478,0,0,0,.955,0V.478A.478.478,0,0,0,424.388,0Z" data-name="Path 1935" transform="translate(-408.565)"/><path id="Path_1936" fill="#8a98b8" d="M123.985,72.021l7.259-4.118-1.129-.643-7.259,4.118Z" data-name="Path 1936" transform="translate(-118.945 -65.119)"/><path id="Path_1937" fill="#8a98b8" d="M43.8,19.519a.478.478,0,0,0,.241.415l1.31.747,7.259-4.118L50.8,15.526a.478.478,0,0,0-.473,0L44.045,19.1A.477.477,0,0,0,43.8,19.519Z" data-name="Path 1937" transform="translate(-42.409 -14.971)"/><path id="Path_1938" fill="#8a98b8" d="M197.3,105.551l-1.4-.8-7.259,4.118,1.908,1.087a.477.477,0,0,0,.473,0l6.278-3.578a.477.477,0,0,0,0-.83Z" data-name="Path 1938" transform="translate(-182.639 -101.418)"/><path id="Path_1939" fill="#8a98b8" d="M57.073,217.127l-1.447-.824-4.358,2.484a1.432,1.432,0,0,1-1.419,0L45.491,216.3l-1.447.824a.478.478,0,0,0,0,.83l6.278,3.578a.478.478,0,0,0,.473,0l6.278-3.578a.478.478,0,0,0,0-.83Z" data-name="Path 1939" transform="translate(-42.409 -209.417)"/><path id="Path_1940" fill="#8a98b8" d="M57.314,329.927a.478.478,0,0,0-.241-.415l-1.447-.824-4.358,2.484a1.433,1.433,0,0,1-1.418,0l-4.359-2.484-1.447.824a.478.478,0,0,0,0,.83l6.278,3.578a.477.477,0,0,0,.473,0l6.278-3.578A.478.478,0,0,0,57.314,329.927Z" data-name="Path 1940" transform="translate(-42.409 -318.224)"/></svg>