<svg id="_18" data-name="18" xmlns="http://www.w3.org/2000/svg" width="16.3" height="16.3" viewBox="0 0 16.3 16.3">
  <path id="Path_1932" data-name="Path 1932" d="M.478,2.865a.478.478,0,0,0,.478-.478V.955H2.388a.478.478,0,0,0,0-.955H.478A.478.478,0,0,0,0,.478v1.91A.478.478,0,0,0,.478,2.865Z" fill="#8a98b8"/>
  <path id="Path_1933" data-name="Path 1933" d="M2.388,423.91H.955v-1.433a.478.478,0,1,0-.955,0v1.91a.478.478,0,0,0,.478.478h1.91a.478.478,0,0,0,0-.955Z" transform="translate(0 -408.565)" fill="#8a98b8"/>
  <path id="Path_1934" data-name="Path 1934" d="M424.388,422a.478.478,0,0,0-.478.478v1.433h-1.433a.478.478,0,0,0,0,.955h1.91a.478.478,0,0,0,.478-.478v-1.91A.478.478,0,0,0,424.388,422Z" transform="translate(-408.565 -408.565)" fill="#8a98b8"/>
  <path id="Path_1935" data-name="Path 1935" d="M424.388,0h-1.91a.478.478,0,1,0,0,.955h1.433V2.388a.478.478,0,0,0,.955,0V.478A.478.478,0,0,0,424.388,0Z" transform="translate(-408.565)" fill="#8a98b8"/>
  <path id="Path_1936" data-name="Path 1936" d="M123.985,72.021l7.259-4.118-1.129-.643-7.259,4.118Z" transform="translate(-118.945 -65.119)" fill="#8a98b8"/>
  <path id="Path_1937" data-name="Path 1937" d="M43.8,19.519a.478.478,0,0,0,.241.415l1.31.747,7.259-4.118L50.8,15.526a.478.478,0,0,0-.473,0L44.045,19.1A.477.477,0,0,0,43.8,19.519Z" transform="translate(-42.409 -14.971)" fill="#8a98b8"/>
  <path id="Path_1938" data-name="Path 1938" d="M197.3,105.551l-1.4-.8-7.259,4.118,1.908,1.087a.477.477,0,0,0,.473,0l6.278-3.578a.477.477,0,0,0,0-.83Z" transform="translate(-182.639 -101.418)" fill="#8a98b8"/>
  <path id="Path_1939" data-name="Path 1939" d="M57.073,217.127l-1.447-.824-4.358,2.484a1.432,1.432,0,0,1-1.419,0L45.491,216.3l-1.447.824a.478.478,0,0,0,0,.83l6.278,3.578a.478.478,0,0,0,.473,0l6.278-3.578a.478.478,0,0,0,0-.83Z" transform="translate(-42.409 -209.417)" fill="#8a98b8"/>
  <path id="Path_1940" data-name="Path 1940" d="M57.314,329.927a.478.478,0,0,0-.241-.415l-1.447-.824-4.358,2.484a1.433,1.433,0,0,1-1.418,0l-4.359-2.484-1.447.824a.478.478,0,0,0,0,.83l6.278,3.578a.477.477,0,0,0,.473,0l6.278-3.578A.478.478,0,0,0,57.314,329.927Z" transform="translate(-42.409 -318.224)" fill="#8a98b8"/>
</svg>
