<svg xmlns="http://www.w3.org/2000/svg" width="16.917" height="16.918" viewBox="0 0 16.917 16.918">
  <g id="wallet" transform="translate(0 0)">
    <g id="Group_2942" data-name="Group 2942" transform="translate(0 0)">
      <path id="Path_1912" data-name="Path 1912" d="M13.382,8.492a1.983,1.983,0,0,0,0,3.965h2.809l.033,0,.033,0a.661.661,0,0,0,.661-.661V6.609a2.641,2.641,0,0,0-1.1-2.141L13.574.78a.661.661,0,0,0-.913-.218L11,1.59,10.256.325A.661.661,0,0,0,9.343.1L2.977,3.965H1.983a.662.662,0,0,1-.661-.644.662.662,0,0,1,.661-.644H3.205a.661.661,0,0,0,0-1.322H1.983A1.986,1.986,0,0,0,.054,2.878.658.658,0,0,0,0,3.139V14.274a2.646,2.646,0,0,0,2.643,2.643H14.274a2.64,2.64,0,0,0,2.508-1.806.661.661,0,0,0-1.254-.418,1.32,1.32,0,0,1-1.254.9H2.643a1.323,1.323,0,0,1-1.322-1.322v-9.1a1.973,1.973,0,0,0,.661.113H14.274A1.323,1.323,0,0,1,15.6,6.609V8.492ZM15.6,11.135H13.382a.661.661,0,0,1,0-1.322H15.6ZM5.522,3.965,9.458,1.573l.7,1.191a.662.662,0,0,0,.048.1.67.67,0,0,0,.047.065l.615,1.04Zm6.885,0-.731-1.237,1.116-.692,1.176,1.929Z" transform="translate(0 0)" fill="#8a98b8"/>
    </g>
  </g>
</svg>
