<svg xmlns="http://www.w3.org/2000/svg" width="16.302" height="15.962" viewBox="0 0 16.302 15.962">
  <g id="shopping-cart" transform="translate(0 -5.34)">
    <path id="Path_1913" data-name="Path 1913" d="M15.633,40.06H12.164a.67.67,0,0,0,0,1.339h2.612l-1.033,4.132-10.31.606L3.006,41.4H5.5a.67.67,0,0,0,0-1.339H2.886L2.7,37.95a.67.67,0,0,0-.667-.61H.67a.67.67,0,1,0,0,1.339h.748l.77,8.579A2.576,2.576,0,0,0,3.152,49a2.029,2.029,0,1,0,3.507.558h3.664a2.03,2.03,0,1,0,1.909-1.339H4.755a1.243,1.243,0,0,1-1.143-.754l10.7-.629a.669.669,0,0,0,.61-.506l1.36-5.441A.67.67,0,0,0,15.633,40.06ZM4.75,50.943a.691.691,0,1,1,.691-.691A.692.692,0,0,1,4.75,50.943Zm7.482,0a.691.691,0,1,1,.691-.691A.692.692,0,0,1,12.232,50.943Z" transform="translate(0 -30.98)" fill="#8a98b8"/>
    <path id="Path_1914" data-name="Path 1914" d="M214.672,11.111a.67.67,0,1,0-1.339,0,2,2,0,0,0,1.36,1.913v.468a.67.67,0,1,0,1.339,0V13.03a1.969,1.969,0,0,0,.108-3.683L215.1,8.916a.628.628,0,0,1-.23-1.007.693.693,0,0,1,1.186.482.67.67,0,1,0,1.339,0,2,2,0,0,0-1.36-1.912V6.01a.67.67,0,1,0-1.339,0v.464a1.966,1.966,0,0,0-.108,3.679l1.043.432a.627.627,0,0,1,.207,1.029.693.693,0,0,1-1.163-.5Z" transform="translate(-206.532 0)" fill="#8a98b8"/>
  </g>
</svg>
