<svg xmlns="http://www.w3.org/2000/svg" width="15.327" height="16.753" viewBox="0 0 15.327 16.753">
  <g id="search" transform="translate(-1)">
    <path id="Path_1915" data-name="Path 1915" d="M20.452,19.185l-1.834-1.773a3.387,3.387,0,0,0,.6-1.922,3.612,3.612,0,1,0-3.61,3.49A3.675,3.675,0,0,0,17.6,18.4l1.834,1.773a.739.739,0,0,0,1.021,0,.681.681,0,0,0,0-.987Zm-4.842-1.6a2.1,2.1,0,1,1,2.166-2.094A2.133,2.133,0,0,1,15.61,17.584Z" transform="translate(-4.337 -3.624)" fill="#8a98b8"/>
    <path id="Path_1916" data-name="Path 1916" d="M.722,21.282a.71.71,0,0,0,.722-.7V15.7A.71.71,0,0,0,.722,15,.71.71,0,0,0,0,15.7v4.886A.71.71,0,0,0,.722,21.282Z" transform="translate(1 -4.529)" fill="#8a98b8"/>
    <path id="Path_1917" data-name="Path 1917" d="M7.444,19.376V11.7A.722.722,0,0,0,6,11.7v7.678a.722.722,0,0,0,1.444,0Z" transform="translate(-1.668 -3.322)" fill="#8a98b8"/>
    <path id="Path_1918" data-name="Path 1918" d="M13.444,5.7A.722.722,0,0,0,12,5.7V9.963a4.891,4.891,0,0,1,1.444-1Z" transform="translate(-3.337 -1.51)" fill="#8a98b8"/>
    <path id="Path_1919" data-name="Path 1919" d="M18.722,0A.712.712,0,0,0,18,.7V7.036a4.771,4.771,0,0,1,1.444.419V.7A.712.712,0,0,0,18.722,0Z" transform="translate(-6.005)" fill="#8a98b8"/>
  </g>
</svg>
