<svg xmlns="http://www.w3.org/2000/svg" width="21.14" height="16.661" viewBox="0 0 21.14 16.661">
  <g id="bitcoin-symbol-inside-circulating-arrows" transform="translate(0 -5.02)">
    <path id="Path_1920" data-name="Path 1920" d="M12.087,17.86V16.646a2.786,2.786,0,0,0,.508-.142,2.014,2.014,0,0,0,.92-.693,1.676,1.676,0,0,0,.325-.995,1.6,1.6,0,0,0-.214-.82,1.513,1.513,0,0,0-.579-.572,2.981,2.981,0,0,0-.729-.268,2.172,2.172,0,0,0,.715-.382,1.625,1.625,0,0,0,.416-.532,1.462,1.462,0,0,0,.143-.638,1.446,1.446,0,0,0-.271-.849,1.716,1.716,0,0,0-.778-.593,2.461,2.461,0,0,0-.456-.126v-1.2H10.939V9.955H10.2V8.839H9.051V9.955H7.3v.939h.268a.9.9,0,0,1,.362.049.285.285,0,0,1,.134.131,1.146,1.146,0,0,1,.039.384v3.785a1.145,1.145,0,0,1-.039.382.268.268,0,0,1-.134.131.954.954,0,0,1-.362.046H7.3v.939H9.051v1.116H10.2V16.742h.738v1.117h1.148ZM9.779,11.052h.744a3.426,3.426,0,0,1,.9.08.725.725,0,0,1,.387.27.773.773,0,0,1,.134.457.762.762,0,0,1-.141.455.828.828,0,0,1-.42.294,2.813,2.813,0,0,1-.864.1H9.779V11.052Zm.9,4.607h-.5a.949.949,0,0,1-.3-.028.154.154,0,0,1-.08-.095,1.86,1.86,0,0,1-.024-.365V13.7h.879a2.6,2.6,0,0,1,.859.107.853.853,0,0,1,.421.316.892.892,0,0,1,.141.511.952.952,0,0,1-.2.608.925.925,0,0,1-.483.333A2.688,2.688,0,0,1,10.681,15.659ZM5.315,12.43,2.98,14.659a.445.445,0,0,1-.308.123h-.01a.444.444,0,0,1-.312-.138L.123,12.308a.446.446,0,1,1,.646-.616l1.459,1.529a8.319,8.319,0,0,1,15.3-4.4.446.446,0,0,1-.749.485A7.425,7.425,0,0,0,3.121,13.29L4.7,11.783a.446.446,0,1,1,.615.647Zm15.694,2.5a.446.446,0,0,1-.631,0l-1.511-1.5a8.318,8.318,0,0,1-15.3,4.438.446.446,0,0,1,.749-.485A7.425,7.425,0,0,0,17.975,13.41l-1.531,1.545a.446.446,0,1,1-.634-.629l2.272-2.293a.445.445,0,0,1,.631,0L21.007,14.3A.446.446,0,0,1,21.01,14.934Z" transform="translate(0)" fill="#8a98b8"/>
  </g>
</svg>
