<svg xmlns="http://www.w3.org/2000/svg" width="16.557" height="14.844" viewBox="0 0 16.557 14.844">
  <g id="Flat" transform="translate(-23.998 -48)">
    <path id="Path_1921" data-name="Path 1921" d="M24.855,59.418a.854.854,0,0,0,.606-.251l4.818-4.818,1.964,1.964a.856.856,0,0,0,1.211,0l5.389-5.389v1.929a.856.856,0,0,0,1.713,0v-4A.856.856,0,0,0,39.7,48h-4a.856.856,0,1,0,0,1.713h1.929L32.848,54.5l-1.964-1.964a.856.856,0,0,0-1.211,0l-5.424,5.424a.856.856,0,0,0,.606,1.462Z" fill="#8a98b8"/>
    <path id="Path_1922" data-name="Path 1922" d="M39.7,416H24.856a.856.856,0,1,0,0,1.713H39.7a.856.856,0,1,0,0-1.713Z" transform="translate(-0.002 -354.869)" fill="#8a98b8"/>
  </g>
</svg>
