<svg id="app-store" xmlns="http://www.w3.org/2000/svg" width="15.315" height="15.315" viewBox="0 0 15.315 15.315">
  <g id="Group_2944" data-name="Group 2944">
    <g id="Group_2943" data-name="Group 2943">
      <path id="Path_1923" data-name="Path 1923" d="M12.174,0H3.141A3.144,3.144,0,0,0,0,3.141v9.034a3.144,3.144,0,0,0,3.141,3.141h9.034a3.144,3.144,0,0,0,3.141-3.141V3.141A3.144,3.144,0,0,0,12.174,0Zm2.243,12.174a2.246,2.246,0,0,1-2.243,2.243H3.141A2.246,2.246,0,0,1,.9,12.174V3.141A2.246,2.246,0,0,1,3.141.9h9.034a2.246,2.246,0,0,1,2.243,2.243Z" fill="#8a98b8"/>
    </g>
  </g>
  <g id="Group_2946" data-name="Group 2946" transform="translate(2.558 3.141)">
    <g id="Group_2945" data-name="Group 2945">
      <path id="Path_1924" data-name="Path 1924" d="M92.085,105.561a.748.748,0,0,0-1.37-.18l-.115.2-.115-.2a.749.749,0,0,0-1.022-.274h0a.749.749,0,0,0-.274,1.022l.547.947-2.018,3.495H86.248a.748.748,0,1,0,0,1.5h5.679l-.864-1.5H89.446l2.565-4.442A.743.743,0,0,0,92.085,105.561Z" transform="translate(-85.5 -105.006)" fill="#8a98b8"/>
    </g>
  </g>
  <g id="Group_2948" data-name="Group 2948" transform="translate(8.003 5.808)">
    <g id="Group_2947" data-name="Group 2947">
      <path id="Path_1925" data-name="Path 1925" d="M271.555,197.063h-1.471l-1.672-2.9-.863,1.5,2.6,4.5a.743.743,0,0,0,.454.348.752.752,0,0,0,.195.026.748.748,0,0,0,.646-1.122l-.492-.853h.608a.748.748,0,0,0,0-1.5Z" transform="translate(-267.548 -194.166)" fill="#8a98b8"/>
    </g>
  </g>
  <g id="Group_2950" data-name="Group 2950" transform="translate(3.32 10.798)">
    <g id="Group_2949" data-name="Group 2949">
      <path id="Path_1926" data-name="Path 1926" d="M111.25,361l-.147.255a.748.748,0,0,0,1.3.748l.579-1Z" transform="translate(-111.003 -361)" fill="#8a98b8"/>
    </g>
  </g>
</svg>
