<svg xmlns="http://www.w3.org/2000/svg" width="41.167" height="52" viewBox="0 0 41.167 52">
  <g id="forms" transform="translate(-53.333)">
    <g id="Group_2961" data-name="Group 2961" transform="translate(59.833 6.5)">
      <g id="Group_2960" data-name="Group 2960">
        <rect id="Rectangle_667" data-name="Rectangle 667" width="10.833" height="2.167" fill="#8a98b8"/>
      </g>
    </g>
    <g id="Group_2963" data-name="Group 2963" transform="translate(59.833 10.833)">
      <g id="Group_2962" data-name="Group 2962">
        <rect id="Rectangle_668" data-name="Rectangle 668" width="2.167" height="2.167" fill="#8a98b8"/>
      </g>
    </g>
    <g id="Group_2965" data-name="Group 2965" transform="translate(64.166 10.833)">
      <g id="Group_2964" data-name="Group 2964">
        <rect id="Rectangle_669" data-name="Rectangle 669" width="2.167" height="2.167" fill="#8a98b8"/>
      </g>
    </g>
    <g id="Group_2967" data-name="Group 2967" transform="translate(53.333)">
      <g id="Group_2966" data-name="Group 2966">
        <path id="Path_1946" data-name="Path 1946" d="M94.182,8.984,85.516.317A1.083,1.083,0,0,0,84.75,0H56.583a3.25,3.25,0,0,0-3.25,3.25v45.5A3.25,3.25,0,0,0,56.583,52H91.25a3.25,3.25,0,0,0,3.25-3.25v-39A1.083,1.083,0,0,0,94.182,8.984ZM92.333,48.75a1.083,1.083,0,0,1-1.083,1.083H56.583A1.083,1.083,0,0,1,55.5,48.75V3.25a1.083,1.083,0,0,1,1.083-1.083H84.3L92.333,10.2Z" transform="translate(-53.333)" fill="#8a98b8"/>
      </g>
    </g>
    <g id="Group_2969" data-name="Group 2969" transform="translate(83.666 1.083)">
      <g id="Group_2968" data-name="Group 2968">
        <path id="Path_1947" data-name="Path 1947" d="M355.25,18.249a1.083,1.083,0,0,1-1.083-1.083v-6.5H352v6.5a3.25,3.25,0,0,0,3.25,3.25h2.167V18.249Z" transform="translate(-352 -10.666)" fill="#8a98b8"/>
      </g>
    </g>
    <g id="Group_2971" data-name="Group 2971" transform="translate(85.833 36.833)">
      <g id="Group_2970" data-name="Group 2970">
        <rect id="Rectangle_670" data-name="Rectangle 670" width="2.167" height="2.167" fill="#8a98b8"/>
      </g>
    </g>
    <g id="Group_2973" data-name="Group 2973" transform="translate(81.5 36.833)">
      <g id="Group_2972" data-name="Group 2972">
        <rect id="Rectangle_671" data-name="Rectangle 671" width="2.167" height="2.167" fill="#8a98b8"/>
      </g>
    </g>
    <g id="Group_2975" data-name="Group 2975" transform="translate(59.833 36.833)">
      <g id="Group_2974" data-name="Group 2974">
        <rect id="Rectangle_672" data-name="Rectangle 672" width="17.333" height="2.167" fill="#8a98b8"/>
      </g>
    </g>
    <g id="Group_2977" data-name="Group 2977" transform="translate(59.833 42.25)">
      <g id="Group_2976" data-name="Group 2976">
        <rect id="Rectangle_673" data-name="Rectangle 673" width="28.167" height="2.167" fill="#8a98b8"/>
      </g>
    </g>
    <g id="Group_2979" data-name="Group 2979" transform="translate(59.833 16.25)">
      <g id="Group_2978" data-name="Group 2978">
        <path id="Path_1948" data-name="Path 1948" d="M143.334,160H119.5a2.167,2.167,0,0,0-2.167,2.167v13a2.167,2.167,0,0,0,2.167,2.167h23.833a2.167,2.167,0,0,0,2.167-2.167v-13A2.167,2.167,0,0,0,143.334,160Zm0,15.167H119.5v-13h23.833v13Z" transform="translate(-117.334 -160)" fill="#8a98b8"/>
      </g>
    </g>
  </g>
</svg>
