<svg xmlns="http://www.w3.org/2000/svg" width="35.28" height="37.565" viewBox="0 0 35.28 37.565">
  <g id="shine" transform="translate(-1)">
    <path id="Path_930" data-name="Path 930" d="M244.418,235.066a8.326,8.326,0,0,1-5.907-2.426,8.207,8.207,0,0,1-2.442-5.864,1.1,1.1,0,1,0-2.2,0,8.207,8.207,0,0,1-2.442,5.865,8.328,8.328,0,0,1-5.907,2.426,1.1,1.1,0,1,0,0,2.2,8.343,8.343,0,0,1,8.349,8.315,1.1,1.1,0,0,0,2.2,0,8.341,8.341,0,0,1,8.349-8.315,1.1,1.1,0,0,0,0-2.2Zm-9.45,5.841a10.6,10.6,0,0,0-4.741-4.736,10.6,10.6,0,0,0,4.741-4.715,10.6,10.6,0,0,0,4.741,4.715,10.6,10.6,0,0,0-4.741,4.739Zm0,0" transform="translate(-209.237 -209.117)" fill="#8a98b8"/>
    <path id="Path_931" data-name="Path 931" d="M15.057,148.791a5.864,5.864,0,0,1-5.879-5.835,1.1,1.1,0,0,0-2.2,0A5.864,5.864,0,0,1,1.1,148.791a1.1,1.1,0,0,0,0,2.2,5.873,5.873,0,0,1,5.879,5.854,1.1,1.1,0,1,0,2.2,0,5.873,5.873,0,0,1,5.879-5.854,1.1,1.1,0,1,0,0-2.2Zm-6.975,4a8.129,8.129,0,0,0-2.9-2.9A8.12,8.12,0,0,0,8.081,147a8.12,8.12,0,0,0,2.9,2.892,8.127,8.127,0,0,0-2.9,2.9Zm0,0" transform="translate(1 -131.448)" fill="#8a98b8"/>
    <path id="Path_932" data-name="Path 932" d="M215.737,7.605a4.312,4.312,0,0,1,4.334,4.289,1.1,1.1,0,0,0,2.2,0,4.319,4.319,0,0,1,4.323-4.3,1.1,1.1,0,0,0,0-2.2A4.312,4.312,0,0,1,222.261,1.1a1.1,1.1,0,1,0-2.2,0,4.319,4.319,0,0,1-4.323,4.3,1.1,1.1,0,0,0,0,2.2Zm5.426-2.9a6.573,6.573,0,0,0,1.792,1.783,6.573,6.573,0,0,0-1.8,1.8,6.572,6.572,0,0,0-1.79-1.788,6.572,6.572,0,0,0,1.8-1.8Zm0,0" transform="translate(-197.885)" fill="#8a98b8"/>
  </g>
</svg>
