<svg xmlns="http://www.w3.org/2000/svg" width="16.01" height="13.006" viewBox="0 0 16.01 13.006">
  <g id="email" transform="translate(0 -60.5)">
    <g id="Group_2953" data-name="Group 2953" transform="translate(0 60.5)">
      <path id="Path_1931" data-name="Path 1931" d="M15.385,68.184a.646.646,0,0,0,.625-.665V63.161a2.588,2.588,0,0,0-2.5-2.661H2.5A2.588,2.588,0,0,0,0,63.161v7.684a2.588,2.588,0,0,0,2.5,2.661H13.509a2.588,2.588,0,0,0,2.5-2.661.627.627,0,1,0-1.251,0,1.294,1.294,0,0,1-1.251,1.331H2.5a1.294,1.294,0,0,1-1.251-1.331V63.3L6.684,66.9a2.361,2.361,0,0,0,2.642,0L14.759,63.3v4.217A.646.646,0,0,0,15.385,68.184ZM8.666,65.766a1.18,1.18,0,0,1-1.321,0L1.773,62.08a1.194,1.194,0,0,1,.729-.25H13.509a1.194,1.194,0,0,1,.729.25Z" transform="translate(0 -60.5)" fill="#8a98b8"/>
    </g>
  </g>
</svg>
