<svg xmlns="http://www.w3.org/2000/svg" width="31.478" height="31.477" viewBox="0 0 31.478 31.477">
  <g id="map" transform="translate(0 -0.001)">
    <g id="Group_2981" data-name="Group 2981" transform="translate(22.663 28.222)">
      <g id="Group_2980" data-name="Group 2980">
        <path id="Path_1949" data-name="Path 1949" d="M369.8,459.342a.615.615,0,0,0-.84-.223l-.024.014a.615.615,0,1,0,.617,1.063l.024-.014A.615.615,0,0,0,369.8,459.342Z" transform="translate(-368.63 -459.036)" fill="#8a98b8"/>
      </g>
    </g>
    <g id="Group_2983" data-name="Group 2983" transform="translate(0 0.001)">
      <g id="Group_2982" data-name="Group 2982" transform="translate(0 0)">
        <path id="Path_1950" data-name="Path 1950" d="M29.369,7.875A15.735,15.735,0,0,0,.543,11.67,15.738,15.738,0,0,0,21.371,30.439a.615.615,0,0,0-.441-1.148A14.412,14.412,0,0,1,7.061,27.385l.551-2.875.265-.086A1.915,1.915,0,0,0,9.1,22.014l-.195-.6a.679.679,0,0,1,0-.424,1.913,1.913,0,0,0-1.45-2.473l-1.388-.271L3.4,16.211a.615.615,0,0,0-.562-.1l-1.567.509a14.493,14.493,0,0,1,0-1.679c.062.058.1.1.127.122a.644.644,0,0,0,.6.308,8.929,8.929,0,0,0,1.1-.125c.519-.077,1.035-.163,1.04-.164a.615.615,0,0,0,.406-.953l-.754-1.106,1.08-.772a.615.615,0,0,0,.176-.195L6.714,9.14l.675-.723a2.6,2.6,0,0,0,.5-2.754A2.827,2.827,0,0,0,6.77,4.344a14.487,14.487,0,0,1,8.8-3.1l-1.1,1.377L10.405,4.046a.614.614,0,0,0-.365.346L8.9,7.148a.615.615,0,0,0,.068.592l1.66,2.326a5.843,5.843,0,0,0-.746.925c-.121.172-.236.335-.315.426s-.138.157-.206.233a5.753,5.753,0,0,0-.989,1.372,3.663,3.663,0,0,0,.3,3.7,3.45,3.45,0,0,0,3.258,1.4,4.787,4.787,0,0,0,.6-.121c.527-.13.694-.143.863.015.082.077.09.092.088.353a2.39,2.39,0,0,0,.055.609,1.942,1.942,0,0,0,.52.849,1.378,1.378,0,0,1,.223.284,1.531,1.531,0,0,1-.075,1.272l-.048.146A3.45,3.45,0,0,0,14.617,24c.111.245.216.475.285.679.553,1.64.967,2.016,1.3,2.167a1.281,1.281,0,0,0,.537.114,3.438,3.438,0,0,0,2.236-1.345,1.889,1.889,0,0,0,.38-.9.98.98,0,0,1,.079-.275,1.611,1.611,0,0,1,.2-.259,2.133,2.133,0,0,0,.5-.835,1.353,1.353,0,0,1,.417-.655l.136-.146a1.971,1.971,0,0,0,.385-2.292c-.188-.606.141-.994.936-1.734a6.64,6.64,0,0,0,.976-1.051,1.327,1.327,0,0,0,.26-1.231c-.222-.516-.788-.6-1.242-.672a2.037,2.037,0,0,1-.537-.125,2.906,2.906,0,0,1-.838-1.27c-.045-.1-.089-.2-.134-.294-.08-.171-.16-.377-.244-.6a5.157,5.157,0,0,0-.909-1.692,3.927,3.927,0,0,0-1.764-.784c-.217-.059-.422-.114-.557-.164a.614.614,0,0,0-.353-.022,1.6,1.6,0,0,0-.655.271.764.764,0,0,0-.219.294,7.031,7.031,0,0,1-.725-.441l-.012-.008A.872.872,0,0,0,15,10.144c-.343-.726-1.483-.67-1.708-.65-.128.011-.289.016-.46.022-.269.01-.565.02-.859.053l.015-.042a1.572,1.572,0,0,1,1.476-1.038h.35a.615.615,0,0,0,0-1.229h-.35a2.806,2.806,0,0,0-2.38,1.327L10.17,7.3l.9-2.187L15.05,3.72a.615.615,0,0,0,.277-.2L17.1,1.305A14.5,14.5,0,0,1,28.3,8.49a14.347,14.347,0,0,1,1.449,3.519l-.261.232a1.642,1.642,0,0,0-.547,1.194s0,.01,0,.015l-.425-1.168a1.535,1.535,0,0,0-.277-.475l-.757-.887a1.541,1.541,0,0,0-1.173-.541h-.927a.89.89,0,0,0-.741,1.384l.094.141a6.813,6.813,0,0,1-2.03,1.205l-1.271-2.434v-.543a.614.614,0,0,0-.19-.445L20.1,8.6a.616.616,0,0,0-.221-.135L18.853,8.1a.615.615,0,1,0-.408,1.16l.905.318.858.819v.431a.615.615,0,0,0,.07.285l1.591,3.047a.614.614,0,0,0,.758.292l.463-.171a8.045,8.045,0,0,0,2.885-1.846.615.615,0,0,0,.077-.776l-.033-.049h.294a.313.313,0,0,1,.238.11l.757.887a.312.312,0,0,1,.056.1L28.2,15a.615.615,0,0,0,1.012.225l.4-.4a1.919,1.919,0,0,0,.508-.924,14.558,14.558,0,0,1-5.4,13.239.615.615,0,0,0,.759.967,15.738,15.738,0,0,0,3.9-20.235ZM2.907,17.384l2.535,1.927a.614.614,0,0,0,.254.114l1.528.3a.683.683,0,0,1,.518.883,1.9,1.9,0,0,0,0,1.187l.195.6a.684.684,0,0,1-.439.861l-.611.2a.615.615,0,0,0-.414.469L5.98,26.488A14.668,14.668,0,0,1,3.18,23a14.429,14.429,0,0,1-1.786-5.12ZM6.49,7.579l-.723.775a.617.617,0,0,0-.084.114L4.041,11.335l-1.46,1.044a.615.615,0,0,0-.15.846l.546.8c-.315.047-.6.085-.785.106l-.113-.106c-.146-.136-.349-.317-.652-.582A14.531,14.531,0,0,1,5.757,5.22a1.6,1.6,0,0,1,1,.912A1.364,1.364,0,0,1,6.49,7.579ZM11.5,10.938a3.942,3.942,0,0,1,1.375-.193c.186-.007.362-.013.519-.026a1.672,1.672,0,0,1,.262,0,.615.615,0,0,0,.283.765c.115.062.276.169.446.282a3.542,3.542,0,0,0,1.537.716,1.02,1.02,0,0,0,.835-.348l.026-.026a.659.659,0,0,0,.165-.2l.307.085a4.094,4.094,0,0,1,1.191.441,4.364,4.364,0,0,1,.656,1.292c.092.239.18.465.278.674.042.09.083.182.125.276a3.839,3.839,0,0,0,1.287,1.8,2.541,2.541,0,0,0,1.023.312l.134.021a5.945,5.945,0,0,1-.78.818c-.761.709-1.708,1.591-1.272,3,.206.664.215.736-.116,1.1l-.127.136a2.526,2.526,0,0,0-.693,1.124.96.96,0,0,1-.25.391,2.745,2.745,0,0,0-.344.455,1.992,1.992,0,0,0-.222.653.753.753,0,0,1-.128.36,3.584,3.584,0,0,1-.776.686,1.014,1.014,0,0,1-.515.205,4.386,4.386,0,0,1-.662-1.444c-.089-.263-.211-.533-.33-.795a2.636,2.636,0,0,1-.4-1.581l.046-.141a2.686,2.686,0,0,0,.041-2.128A2.217,2.217,0,0,0,14.975,19a1.143,1.143,0,0,1-.235-.312,1.329,1.329,0,0,1-.02-.311,1.525,1.525,0,0,0-.477-1.258,1.98,1.98,0,0,0-2-.311,3.857,3.857,0,0,1-.449.093,2.209,2.209,0,0,1-2.116-.895,2.434,2.434,0,0,1-.191-2.461,4.668,4.668,0,0,1,.8-1.081c.071-.08.143-.161.215-.244.12-.138.252-.325.391-.523A4.444,4.444,0,0,1,11.5,10.938Z" transform="translate(0 -0.001)" fill="#8a98b8"/>
      </g>
    </g>
    <g id="Group_2985" data-name="Group 2985" transform="translate(21.527 19.595)">
      <g id="Group_2984" data-name="Group 2984">
        <path id="Path_1951" data-name="Path 1951" d="M353.831,320.283l-.3-1.115a.615.615,0,0,0-1.135-.135c-.067.124-.128.256-.187.383a2.641,2.641,0,0,1-.307.557,1.357,1.357,0,0,1-.361.214,1.69,1.69,0,0,0-1.024,1,1.8,1.8,0,0,0-.041.867.56.56,0,0,1-.016.362l-.006.014a2.069,2.069,0,0,0-.049,2.041,1.28,1.28,0,0,0,1.045.652,1,1,0,0,0,.164-.013c.627-.1,1.1-.755,1.484-2.053l.723-2.437A.615.615,0,0,0,353.831,320.283Zm-1.907,2.42a3.729,3.729,0,0,1-.47,1.108c-.012-.015-.024-.031-.038-.051-.117-.167.058-.579.174-.852l.006-.014a1.73,1.73,0,0,0,.1-1.024.644.644,0,0,1,0-.319c.024-.077.168-.151.385-.256.1-.046.2-.1.309-.159Z" transform="translate(-350.15 -318.711)" fill="#8a98b8"/>
      </g>
    </g>
    <g id="Group_2987" data-name="Group 2987" transform="translate(15.742 7.259)">
      <g id="Group_2986" data-name="Group 2986">
        <path id="Path_1952" data-name="Path 1952" d="M256.9,118.108l-.041-.015a.615.615,0,0,0-.407,1.16l.041.015a.615.615,0,1,0,.407-1.16Z" transform="translate(-256.044 -118.059)" fill="#8a98b8"/>
      </g>
    </g>
  </g>
</svg>
