<svg xmlns="http://www.w3.org/2000/svg" width="13.547" height="17.291" viewBox="0 0 13.547 17.291">
  <g id="pie-chart" transform="translate(-49.508)">
    <g id="Group_2951" data-name="Group 2951" transform="translate(51.943 5.301)">
      <path id="Path_1927" data-name="Path 1927" d="M132.629,160.131h-3.394v-3.4a.087.087,0,0,0-.089-.077,3.481,3.481,0,0,0,.089,6.961h0a3.481,3.481,0,0,0,3.48-3.392A.087.087,0,0,0,132.629,160.131Z" transform="translate(-125.755 -156.651)" fill="#8a98b8"/>
    </g>
    <g id="Group_2952" data-name="Group 2952" transform="translate(49.508 0)">
      <path id="Path_1928" data-name="Path 1928" d="M63.055,3.305a.342.342,0,0,0-.092-.235l-.006-.006L60.045.1a.425.425,0,0,0-.232-.1H50.538a1.043,1.043,0,0,0-1.03,1.053V16.238a1.043,1.043,0,0,0,1.03,1.053H62.025a1.043,1.043,0,0,0,1.03-1.053V3.305h0ZM60.142,1.147l1.276,1.3.511.521H60.142V1.147Zm1.883,15.469H50.538a.376.376,0,0,1-.374-.377V1.053a.376.376,0,0,1,.374-.377h8.948V3.3a.333.333,0,0,0,.328.338H62.4v12.6A.376.376,0,0,1,62.025,16.616Z" transform="translate(-49.508 0)" fill="#8a98b8"/>
      <path id="Path_1929" data-name="Path 1929" d="M263.33,102.886a.43.43,0,0,0-.307.12.425.425,0,0,0-.128.3V106.7a.337.337,0,0,0,.337.337h3.393a.424.424,0,0,0,.423-.435A3.813,3.813,0,0,0,263.33,102.886Zm.239,3.48v-2.79a3.141,3.141,0,0,1,2.79,2.79Z" transform="translate(-255.974 -99.408)" fill="#8a98b8"/>
      <path id="Path_1930" data-name="Path 1930" d="M140.555,420.064h-7.284a.337.337,0,0,0,0,.673h7.284a.337.337,0,0,0,0-.673Z" transform="translate(-130.14 -405.868)" fill="#8a98b8"/>
    </g>
  </g>
</svg>
